<?xml version="1.0" encoding="utf-8"?>
<!-- Generator: Adobe Illustrator 18.0.0, SVG Export Plug-In . SVG Version: 6.00 Build 0)  -->
<!DOCTYPE svg PUBLIC "-//W3C//DTD SVG 1.1//EN" "http://www.w3.org/Graphics/SVG/1.1/DTD/svg11.dtd">
<svg version="1.1" id="Calque_1" xmlns="http://www.w3.org/2000/svg" xmlns:xlink="http://www.w3.org/1999/xlink" x="0px" y="0px"
	 viewBox="0 0 80 80" enable-background="new 0 0 80 80" xml:space="preserve">
<g>
	<g>
		<path fill="#333333" d="M75.9,15.3V3.8H64.4v4.6H46.1V3.8H34.6v4.6H16.2V3.8H4.7v11.5h4.6v18.4H4.7v11.5h4.6v18.4H4.7V75h11.5
			v-4.6h18.4V75h11.5v-4.6h18.4V75h11.5V63.5h-4.6V45.2h4.6V33.7h-4.6V15.3H75.9z M66.7,6.1h6.9V13h-6.9V6.1z M36.9,6.1h6.9V13h-6.9
			V6.1z M7,6.1h6.9V13H7V6.1z M7,36h6.9v6.9H7V36z M13.9,72.7H7v-6.9h6.9V72.7z M43.8,72.7h-6.9v-6.9h6.9V72.7z M73.6,72.7h-6.9
			v-6.9h6.9V72.7z M73.6,42.9h-6.9V36h6.9V42.9z M69,33.7h-4.6v11.5H69v18.4h-4.6v4.6H46.1v-4.6H34.6v4.6H16.2v-4.6h-4.6V45.2h4.6
			V33.7h-4.6V15.3h4.6v-4.6h18.4v4.6h11.5v-4.6h18.4v4.6H69V33.7z"/>
		<rect x="28.8" y="17.6" fill="#333333" width="2.3" height="4.6"/>
		
			<rect x="22.3" y="20.3" transform="matrix(-0.7072 0.707 -0.707 -0.7072 56.0318 21.9676)" fill="#333333" width="2.3" height="4.6"/>
		<rect x="18.5" y="27.9" fill="#333333" width="4.6" height="2.3"/>
		
			<rect x="21.2" y="34.4" transform="matrix(-0.7071 0.7071 -0.7071 -0.7071 65.2214 44.1471)" fill="#333333" width="4.6" height="2.3"/>
		<path fill="#333333" d="M41.5,30.2v-2.3h-4.6v1.7L26.9,26l3.5,9.9h-1.7v4.6h2.3v-2.8l9.2,25.6l6.7-17.4l17.3-6.7l-25.6-9.1H41.5z
			 M45.2,44.3l-4.8,12.5l-9.6-27l27,9.6L45.2,44.3z"/>
		
			<rect x="34.2" y="21.4" transform="matrix(-0.7071 0.7071 -0.7071 -0.7071 78.2188 12.7682)" fill="#333333" width="4.6" height="2.3"/>
	</g>
	
		<text transform="matrix(1 0 0 1 3.542 93.418)" display="none" fill="#333333" enable-background="new    " font-family="'HelveticaNeue-Bold'" font-size="5.7442">Created by Eucalyp</text>
	
		<text transform="matrix(1 0 0 1 3.542 99.1621)" display="none" fill="#333333" enable-background="new    " font-family="'HelveticaNeue-Bold'" font-size="5.7442">from the Noun Project</text>
</g>
</svg>
