<?xml version="1.0" encoding="utf-8"?>
<!-- Generator: Adobe Illustrator 18.0.0, SVG Export Plug-In . SVG Version: 6.00 Build 0)  -->
<!DOCTYPE svg PUBLIC "-//W3C//DTD SVG 1.1//EN" "http://www.w3.org/Graphics/SVG/1.1/DTD/svg11.dtd">
<svg version="1.1" id="Calque_3" xmlns="http://www.w3.org/2000/svg" xmlns:xlink="http://www.w3.org/1999/xlink" x="0px" y="0px"
	 viewBox="0 0 80 80" enable-background="new 0 0 80 80" xml:space="preserve">
<g>
	<g transform="translate(0,-952.36218)">
		<path fill="#333333" d="M25.2,975.8c0.4,0,0.7,0.3,0.7,0.7c0,0.3-0.2,0.6-0.5,0.7l-8.3,2.7c-0.4,0.1-0.8-0.1-0.9-0.5
			s0.1-0.8,0.5-0.9c0,0,0,0,0,0l8.3-2.7C25,975.8,25.1,975.8,25.2,975.8L25.2,975.8z"/>
		<path fill="#333333" d="M25.2,981.9c0.4,0,0.7,0.3,0.7,0.7c0,0.3-0.2,0.6-0.5,0.7l-8.3,2.7c-0.4,0.1-0.8-0.1-0.9-0.5
			c-0.1-0.4,0.1-0.8,0.5-0.9c0,0,0,0,0,0l8.3-2.7C25,981.9,25.1,981.9,25.2,981.9L25.2,981.9z"/>
		<path fill="#333333" d="M25.2,1007.7c0.4,0,0.7,0.4,0.6,0.8c0,0.3-0.3,0.6-0.5,0.6l-8.3,2.7c-0.4,0.1-0.8-0.1-0.9-0.5
			c-0.1-0.4,0.1-0.8,0.5-0.9l8.3-2.7C25,1007.7,25.1,1007.7,25.2,1007.7L25.2,1007.7z"/>
		<path fill="#333333" d="M25.2,1001.6c0.4,0.1,0.6,0.4,0.6,0.8c0,0.3-0.2,0.5-0.5,0.6l-8.3,2.7c-0.4,0.2-0.8,0-1-0.3
			c-0.2-0.4,0-0.8,0.3-1c0.1,0,0.1-0.1,0.2-0.1l8.3-2.7C25,1001.6,25.1,1001.5,25.2,1001.6L25.2,1001.6z"/>
		<path fill="#333333" d="M25.2,988.6c0.4,0.1,0.6,0.4,0.6,0.8c0,0.3-0.2,0.5-0.5,0.6l-8.3,2.7c-0.4,0.1-0.8-0.1-0.9-0.5
			s0.1-0.8,0.5-0.9c0,0,0,0,0,0l8.3-2.7C25,988.6,25.1,988.6,25.2,988.6L25.2,988.6z"/>
		<path fill="#333333" d="M25.2,994.7c0.4,0.1,0.6,0.4,0.6,0.8c0,0.3-0.2,0.5-0.5,0.6l-8.3,2.7c-0.4,0.1-0.8-0.1-0.9-0.5
			c-0.1-0.4,0.1-0.8,0.5-0.9c0,0,0,0,0,0l8.3-2.7C25,994.7,25.1,994.7,25.2,994.7L25.2,994.7z"/>
		<path fill="#333333" d="M36.9,975.8c0.1,0,0.1,0,0.2,0l8.3,2.7c0.4,0.1,0.6,0.5,0.5,0.9c-0.1,0.4-0.5,0.6-0.9,0.5c0,0,0,0,0,0
			l-8.3-2.7c-0.4-0.1-0.6-0.4-0.6-0.8C36.1,975.9,36.5,975.7,36.9,975.8L36.9,975.8z"/>
		<path fill="#333333" d="M36.9,981.9c0.1,0,0.1,0,0.2,0l8.3,2.7c0.4,0.1,0.6,0.5,0.5,0.9c-0.1,0.4-0.5,0.6-0.9,0.5c0,0,0,0,0,0
			l-8.3-2.7c-0.4-0.1-0.6-0.4-0.6-0.8C36.1,982.1,36.5,981.9,36.9,981.9L36.9,981.9z"/>
		<path fill="#333333" d="M36.9,1007.7c0,0,0.1,0,0.1,0l8.3,2.7c0.4,0.1,0.6,0.5,0.5,0.9c-0.1,0.4-0.5,0.6-0.9,0.5l-8.3-2.7
			c-0.4-0.1-0.6-0.5-0.5-0.9C36.2,1007.9,36.5,1007.6,36.9,1007.7L36.9,1007.7z"/>
		<path fill="#333333" d="M36.9,1001.6c0,0,0.1,0,0.1,0l8.3,2.7c0.4,0.1,0.7,0.4,0.6,0.8s-0.4,0.7-0.8,0.6c-0.1,0-0.1,0-0.2-0.1
			l-8.3-2.7c-0.4-0.1-0.6-0.5-0.5-0.9C36.3,1001.7,36.6,1001.5,36.9,1001.6L36.9,1001.6z"/>
		<path fill="#333333" d="M36.9,988.6c0,0,0.1,0,0.1,0l8.3,2.7c0.4,0.1,0.6,0.5,0.5,0.9c-0.1,0.4-0.5,0.6-0.9,0.5c0,0,0,0,0,0
			l-8.3-2.7c-0.4-0.1-0.6-0.5-0.5-0.9C36.3,988.7,36.6,988.5,36.9,988.6L36.9,988.6z"/>
		<path fill="#333333" d="M36.9,994.7c0,0,0.1,0,0.1,0l8.3,2.7c0.4,0.1,0.6,0.5,0.5,0.9c-0.1,0.4-0.5,0.6-0.9,0.5c0,0,0,0,0,0
			l-8.3-2.7c-0.4-0.1-0.6-0.5-0.5-0.9C36.3,994.9,36.6,994.7,36.9,994.7L36.9,994.7z"/>
		<path fill="#333333" d="M65.2,975.8c0.4,0,0.7,0.3,0.7,0.7c0,0.3-0.2,0.6-0.5,0.7l-8.3,2.7c-0.4,0.1-0.8-0.1-0.9-0.5
			s0.1-0.8,0.5-0.9c0,0,0,0,0,0l8.3-2.7C65,975.8,65.1,975.8,65.2,975.8L65.2,975.8z"/>
		<path fill="#333333" d="M65.2,981.9c0.4,0,0.7,0.3,0.7,0.7c0,0.3-0.2,0.6-0.5,0.7l-8.3,2.7c-0.4,0.1-0.8-0.1-0.9-0.5
			c-0.1-0.4,0.1-0.8,0.5-0.9c0,0,0,0,0,0l8.3-2.7C65,981.9,65.1,981.9,65.2,981.9L65.2,981.9z"/>
		<path fill="#333333" d="M65.3,1007.7c0.4,0,0.7,0.4,0.6,0.8c0,0.3-0.3,0.6-0.5,0.6l-8.3,2.7c-0.4,0.1-0.8-0.1-0.9-0.5
			c-0.1-0.4,0.1-0.8,0.5-0.9l8.3-2.7C65,1007.7,65.2,1007.7,65.3,1007.7L65.3,1007.7z"/>
		<path fill="#333333" d="M65.3,1001.6c0.4,0.1,0.6,0.4,0.6,0.8c0,0.3-0.2,0.5-0.5,0.6l-8.3,2.7c-0.4,0.2-0.8,0-1-0.3
			c-0.2-0.4,0-0.8,0.3-1c0.1,0,0.1-0.1,0.2-0.1l8.3-2.7C65,1001.6,65.2,1001.5,65.3,1001.6L65.3,1001.6z"/>
		<path fill="#333333" d="M65.3,988.6c0.4,0.1,0.6,0.4,0.6,0.8c0,0.3-0.2,0.5-0.5,0.6l-8.3,2.7c-0.4,0.1-0.8-0.1-0.9-0.5
			s0.1-0.8,0.5-0.9c0,0,0,0,0,0l8.3-2.7C65,988.6,65.2,988.6,65.3,988.6L65.3,988.6z"/>
		<path fill="#333333" d="M65.3,994.7c0.4,0.1,0.6,0.4,0.6,0.8c0,0.3-0.2,0.5-0.5,0.6l-8.3,2.7c-0.4,0.1-0.8-0.1-0.9-0.5
			c-0.1-0.4,0.1-0.8,0.5-0.9c0,0,0,0,0,0l8.3-2.7C65,994.7,65.2,994.7,65.3,994.7L65.3,994.7z"/>
		<path fill="#333333" d="M71.7,966.5v48c0,0.3-0.2,0.6-0.5,0.7l-19.8,6.2c-0.3,0.1-0.5,0.1-0.8,0l-19.6-6.2l-19.8,6.2
			c-0.4,0.1-0.9-0.2-0.9-0.7v-48.1c0-0.3,0.2-0.6,0.5-0.7l19.8-6.2c0.4-0.1,0.4-0.1,0.8,0l19.6,6.1l19.8-6.2
			C71.3,965.7,71.7,966,71.7,966.5z M70.3,967.5l-18.6,5.8v46.6l18.6-5.9L70.3,967.5z M31.7,967.5v46.5l18.6,5.9v-46.6L31.7,967.5z
			 M30.3,967.5l-18.6,5.8v46.6l18.6-5.9V967.5z"/>
	</g>
</g>
</svg>
