<?xml version="1.0" encoding="utf-8"?>
<!-- Generator: Adobe Illustrator 18.0.0, SVG Export Plug-In . SVG Version: 6.00 Build 0)  -->
<!DOCTYPE svg PUBLIC "-//W3C//DTD SVG 1.1//EN" "http://www.w3.org/Graphics/SVG/1.1/DTD/svg11.dtd">
<svg version="1.1" id="Calque_3" xmlns="http://www.w3.org/2000/svg" xmlns:xlink="http://www.w3.org/1999/xlink" x="0px" y="0px"
	 viewBox="0 0 80 80" enable-background="new 0 0 80 80" xml:space="preserve">
<g>
	<path display="none" d="M65.5,59.1h7V18.9h-7c-0.7,0-1.3-0.4-1.3-1v-4.2c0-0.6,0.6-1.1,1.3-1.1h6.3c-1.2-2.8-4-4.6-7.2-4.6H18.1
		c-3.2,0-5.9,1.9-7.2,4.6h6.3c0.7,0,1.3,0.5,1.3,1.1v4.2c0,0.6-0.6,1-1.3,1h-7v40.2h7c0.7,0,1.3,0.5,1.3,1.1v4.2
		c0,0.6-0.6,1.1-1.3,1.1h-6.3c1.2,2.8,4,4.6,7.2,4.6h46.6c3.2,0,5.9-1.9,7.2-4.6h-6.3c-0.7,0-1.3-0.5-1.3-1.1v-4.2
		C64.3,59.6,64.8,59.1,65.5,59.1z M37.3,17.8c0,0.6-0.6,1.1-1.3,1.1h-8c-0.7,0-1.3-0.5-1.3-1.1v-4.2c0-0.6,0.6-1.1,1.3-1.1h8
		c0.7,0,1.3,0.5,1.3,1.1V17.8z M50.9,37.7c1.9,1.4,0.2,2.9,0.2,2.9l-16.7,9.5C31.1,52,31,48.8,31,48.8V29.5c0.1-3.4,3.2-1.6,3.2-1.6
		L50.9,37.7z M37.3,64.4c0,0.6-0.6,1.1-1.3,1.1h-8c-0.7,0-1.3-0.5-1.3-1.1v-4.2c0-0.6,0.6-1.1,1.3-1.1h8c0.7,0,1.3,0.5,1.3,1.1V64.4
		z M56.1,64.4c0,0.6-0.6,1.1-1.3,1.1h-8c-0.7,0-1.3-0.5-1.3-1.1v-4.2c0-0.6,0.6-1.1,1.3-1.1h8c0.7,0,1.3,0.5,1.3,1.1V64.4z
		 M56.1,17.8c0,0.6-0.6,1.1-1.3,1.1h-8c-0.7,0-1.3-0.5-1.3-1.1v-4.2c0-0.6,0.6-1.1,1.3-1.1h8c0.7,0,1.3,0.5,1.3,1.1V17.8z"/>
	<path fill="#333333" d="M72.8,14.9c0-2.8-2.3-5-5-5H15c-2.8,0-5,2.3-5,5v48.2c0,2.8,2.3,5,5,5h52.7c2.8,0,5-2.3,5-5V14.9z
		 M67.4,13.2c1.1,0,2.1,0.9,2.1,2.1c0,1.1-0.9,2.1-2.1,2.1c-1.1,0-2.1-0.9-2.1-2.1C65.4,14.2,66.3,13.2,67.4,13.2z M60.4,13.2
		c1.1,0,2.1,0.9,2.1,2.1c0,1.1-0.9,2.1-2.1,2.1c-1.1,0-2.1-0.9-2.1-2.1C58.4,14.2,59.3,13.2,60.4,13.2z M53.5,13.2
		c1.1,0,2.1,0.9,2.1,2.1c0,1.1-0.9,2.1-2.1,2.1c-1.1,0-2.1-0.9-2.1-2.1C51.4,14.2,52.3,13.2,53.5,13.2z M69.5,62.7
		c0,1.2-1,2.1-2.1,2.1H15.4c-1.2,0-2.1-1-2.1-2.1V22.8c0-1.2,1-2.1,2.1-2.1h51.9c1.2,0,2.1,1,2.1,2.1C69.5,22.8,69.5,62.7,69.5,62.7
		z"/>
	<path fill="#333333" d="M51.4,46.7l-17.2,9.9c-3.4,1.8-3.5-1.5-3.5-1.5V35.2c0.1-3.5,3.3-1.7,3.3-1.7l17.2,10.2
		C53.2,45.1,51.4,46.7,51.4,46.7z"/>
	<path display="none" d="M65.6,59.1h6.9V18.9h-6.9c-0.7,0-1.3-0.4-1.3-1v-4.2c0-0.6,0.6-1.1,1.3-1.1h6.3c-1.2-2.8-4-4.6-7.2-4.6
		H18.1c-3.2,0-5.9,1.9-7.2,4.6h6.3c0.7,0,1.2,0.5,1.2,1.1v4.2c0,0.6-0.5,1-1.2,1h-7v40.2h7c0.7,0,1.2,0.5,1.2,1.1v4.2
		c0,0.6-0.5,1.1-1.2,1.1H11c1.2,2.8,4,4.6,7.2,4.6h46.6c3.2,0,5.9-1.9,7.2-4.6h-6.3c-0.7,0-1.3-0.5-1.3-1.1v-4.2
		C64.3,59.6,64.9,59.1,65.6,59.1z M56.1,17.8c0,0.6-0.6,1.1-1.3,1.1h-8c-0.7,0-1.3-0.5-1.3-1.1v-4.2c0-0.6,0.6-1.1,1.3-1.1h8
		c0.7,0,1.3,0.5,1.3,1.1C56.1,13.6,56.1,17.8,56.1,17.8z M37.3,17.8c0,0.6-0.6,1.1-1.3,1.1h-8c-0.7,0-1.3-0.5-1.3-1.1v-4.2
		c0-0.6,0.6-1.1,1.3-1.1h8c0.7,0,1.3,0.5,1.3,1.1V17.8z M51.3,51.3c0,1.1-0.9,2.1-2.1,2.1H16.1c-1.1,0-2.1-0.9-2.1-2.1V26.7
		c0-1.1,0.9-2.1,2.1-2.1h33.1c1.1,0,2.1,0.9,2.1,2.1V51.3z M37.3,64.4c0,0.6-0.6,1.1-1.3,1.1h-8c-0.7,0-1.3-0.5-1.3-1.1v-4.2
		c0-0.6,0.6-1.1,1.3-1.1h8c0.7,0,1.3,0.5,1.3,1.1V64.4z M56.1,64.4c0,0.6-0.6,1.1-1.3,1.1h-8c-0.7,0-1.3-0.5-1.3-1.1v-4.2
		c0-0.6,0.6-1.1,1.3-1.1h8c0.7,0,1.3,0.5,1.3,1.1C56.1,60.2,56.1,64.4,56.1,64.4z M68.8,51.3c0,1.1-0.9,2.1-2.1,2.1h-9.6
		c-1.1,0-2.1-0.9-2.1-2.1V26.7c0-1.1,0.9-2.1,2.1-2.1h9.6c1.1,0,2.1,0.9,2.1,2.1V51.3z"/>
	<path display="none" d="M72.3,15.4c0-4-3.3-7.3-7.3-7.3H17.8c-4,0-7.3,3.3-7.3,7.3v47.3c0,4,3.3,7.3,7.3,7.3H65
		c4,0,7.3-3.3,7.3-7.3V15.4z M67.8,61.9c0,1.8-1.5,3.3-3.3,3.3h-46c-1.8,0-3.3-1.5-3.3-3.3V16.3c0-1.8,1.5-3.3,3.3-3.3h46
		c1.8,0,3.3,1.5,3.3,3.3V61.9z"/>
	<path display="none" d="M52.7,40.9L33.2,52.1c-3.8,2-3.9-1.7-3.9-1.7V27.9C29.4,23.9,33,26,33,26l19.4,11.5
		C54.7,39.1,52.7,40.9,52.7,40.9z"/>
	<path display="none" d="M57.6,41.2L35,54.1c-4.5,2.3-4.6-2-4.6-2V26.1c0.1-4.6,4.3-2.2,4.3-2.2l22.6,13.4
		C59.9,39.1,57.6,41.2,57.6,41.2z"/>
	<path display="none" d="M41.4,7.8c-17.2,0-31.2,14-31.2,31.2c0,17.2,14,31.2,31.2,31.2s31.2-14,31.2-31.2
		C72.6,21.8,58.6,7.8,41.4,7.8z M41.4,66.1c-15,0-27.1-12.1-27.1-27.1s12.1-27.1,27.1-27.1c15,0,27.1,12.1,27.1,27.1
		S56.4,66.1,41.4,66.1z"/>
	<path display="none" d="M41.4,7.8c-17.2,0-31.2,14-31.2,31.2c0,17.2,14,31.2,31.2,31.2s31.2-14,31.2-31.2
		C72.6,21.8,58.6,7.8,41.4,7.8z M41.4,66.1c-15,0-27.1-12.1-27.1-27.1s12.1-27.1,27.1-27.1c15,0,27.1,12.1,27.1,27.1
		S56.4,66.1,41.4,66.1z"/>
	<path display="none" d="M36.3,50.1c0,1.9-1.5,3.4-3.4,3.4l0,0c-1.9,0-3.4-1.5-3.4-3.4V28c0-1.9,1.5-3.4,3.4-3.4l0,0
		c1.9,0,3.4,1.5,3.4,3.4V50.1z"/>
	<path display="none" d="M53.3,50.1c0,1.9-1.5,3.4-3.4,3.4l0,0c-1.9,0-3.4-1.5-3.4-3.4V28c0-1.9,1.5-3.4,3.4-3.4l0,0
		c1.9,0,3.4,1.5,3.4,3.4V50.1z"/>
	<path display="none" d="M41.4,8c-17.1,0-31,13.9-31,31c0,17.1,13.9,31,31,31c17.1,0,31-13.9,31-31C72.4,21.9,58.5,8,41.4,8z
		 M57.1,20.7c4.6,0,8.4,3.7,8.4,8.4s-3.7,8.4-8.4,8.4c-4.6,0-8.4-3.7-8.4-8.4C48.8,24.4,52.5,20.7,57.1,20.7z M15.4,39.2
		c0-4.6,3.7-8.4,8.4-8.4c4.6,0,8.4,3.7,8.4,8.4c0,4.6-3.7,8.4-8.4,8.4C19.2,47.5,15.4,43.8,15.4,39.2z M35.8,65.2
		c-4.6,0-8.4-3.7-8.4-8.4c0-4.6,3.7-8.4,8.4-8.4c4.6,0,8.4,3.7,8.4,8.4C44.2,61.5,40.4,65.2,35.8,65.2z M41.4,41.9
		c-1.6,0-2.8-1.3-2.8-2.8c0-1.6,1.3-2.8,2.8-2.8c1.6,0,2.8,1.3,2.8,2.8C44.2,40.6,43,41.9,41.4,41.9z M36.5,30
		c-4.6,0-8.4-3.7-8.4-8.4s3.7-8.4,8.4-8.4c4.6,0,8.4,3.7,8.4,8.4S41.1,30,36.5,30z M56.9,58.5c-4.6,0-8.4-3.7-8.4-8.4
		s3.7-8.4,8.4-8.4c4.6,0,8.4,3.7,8.4,8.4S61.5,58.5,56.9,58.5z"/>
	<g display="none">
		<g display="inline">
			<path d="M43.4,70.1c2,0,4.1,0,6.1,0c4,0,8,0,12,0c2.9,0,5.7,0,8.6,0c0.2,0,0.3,0,0.5,0c1,0,1.9-0.8,1.9-1.9c0-1-0.8-1.9-1.9-1.9
				c-2,0-4.1,0-6.1,0c-4,0-8,0-12,0c-2.9,0-5.7,0-8.6,0c-0.2,0-0.3,0-0.5,0c-1,0-1.9,0.8-1.9,1.9C41.5,69.2,42.3,70.1,43.4,70.1
				L43.4,70.1z"/>
		</g>
	</g>
	<path display="none" d="M19.3,17.7l4.3,6.1l-10,2.2L12.7,22c-0.3-1.5,0.7-3,2.3-3.4L19.3,17.7z"/>
	<polygon display="none" points="34.8,14.3 39.1,20.3 30.2,22.3 25.9,16.2 	"/>
	<polygon display="none" points="50.3,10.9 54.6,16.9 45.6,18.9 41.4,12.8 	"/>
	<path display="none" d="M67.5,10l0.9,3.9l-7.3,1.6l-4.3-6.1L64,7.9C65.6,7.5,67.2,8.5,67.5,10z"/>
	<polygon display="none" points="13.6,27.7 23.9,27.7 21,34.5 13.6,34.5 	"/>
	<polygon display="none" points="30.7,27.7 39.9,27.7 37,34.5 27.8,34.5 	"/>
	<polygon display="none" points="46.7,27.7 55.9,27.7 53,34.5 43.8,34.5 	"/>
	<polygon display="none" points="70.1,27.7 70.1,34.5 59.8,34.5 62.7,27.7 	"/>
	<path display="none" d="M13.6,36.5v26.4c0,4.1,3.3,7.3,7.3,7.3h41.9c4.1,0,7.4-3.3,7.4-7.3V36.5H13.6z M51.5,55l-16.5,9.5
		c-3.3,1.7-3.4-1.5-3.4-1.5V43.9c0.1-3.4,3.2-1.6,3.2-1.6l16.5,9.8C53.2,53.4,51.5,55,51.5,55z"/>
	<path display="none" d="M53.5,29.8c0-5.6-4.5-10.2-10-10.2l-22.3-0.2c-5.6,0-10.2,4.5-10.2,10l-0.2,18.9c0,5.6,4.5,10.2,10,10.2
		l22.3,0.2c5.6,0,10.2-4.5,10.2-10L53.5,29.8z M42.6,40.5l-14.1,7.9c-2.8,1.4-2.8-1.3-2.8-1.3l0.1-16.3c0.1-2.9,2.7-1.4,2.7-1.4
		l14,8.5C44.1,39.2,42.6,40.5,42.6,40.5z"/>
	<path display="none" d="M55.9,47.4l11.4,6.8c4.4,2.3,4.5-1.9,4.5-1.9L72,26.7c0-4.5-4.2-2.2-4.2-2.2l-11.8,7L55.9,47.4z"/>
	<circle display="none" fill="none" stroke="#000000" stroke-width="60" stroke-miterlimit="10" cx="21.6" cy="22.5" r="8.2"/>
	<circle display="none" fill="none" stroke="#000000" stroke-width="60" stroke-miterlimit="10" cx="43" cy="22.5" r="8.2"/>
	<path display="none" d="M11.4,56.3c0,0.4,0,0.8,0.1,1.2V47.2L11.4,56.3z"/>
	<path display="none" d="M55.6,56.6l11.4,6.6c4.3,2.3,4.4-1.9,4.4-1.9L71.3,36c-0.1-4.4-4.2-2.2-4.2-2.2l-11.5,7L55.6,56.6z"/>
	<path display="none" d="M53.1,39.3c0-3.2-2.6-5.9-5.9-5.9H17.4c-3.2,0-5.9,2.6-5.9,5.9v18.6c0,3.2,2.6,5.9,5.9,5.9h29.9
		c3.2,0,5.9-2.6,5.9-5.9V39.3z M41,49.8l-11.7,6.6c-2.3,1.2-2.3-1-2.3-1l0.1-13.4c0.1-2.4,2.2-1.1,2.2-1.1l11.5,7
		C42.3,48.7,41,49.8,41,49.8z"/>
	<path display="none" fill="none" stroke="#000000" stroke-width="60" stroke-miterlimit="10" d="M70.1,61c0,3.3-2.7,5.9-5.9,5.9
		H18.5c-3.3,0-5.9-2.7-5.9-5.9V29.8c0-3.3,2.7-5.9,5.9-5.9h45.7c3.3,0,5.9,2.7,5.9,5.9V61z"/>
	<path display="none" d="M52.4,47.1l-17.2,9.9c-3.4,1.8-3.5-1.5-3.5-1.5V35.5c0.1-3.5,3.3-1.7,3.3-1.7L52.2,44
		C54.2,45.4,52.4,47.1,52.4,47.1z"/>
	<path display="none" fill="none" stroke="#000000" stroke-width="50" stroke-miterlimit="10" d="M20.7,20.6c0-2.4,1.9-4.3,4.3-4.3
		h32.9c2.4,0,4.3,1.9,4.3,4.3"/>
	<path display="none" fill="none" stroke="#000000" stroke-width="40" stroke-miterlimit="10" d="M30.4,13.4c0-1.3,1-2.3,2.3-2.3
		h17.6c1.3,0,2.3,1,2.3,2.3"/>
	<path display="none" d="M43.8,29.8H27.6v-7.1c0-2.2-1.7-3.9-3.9-3.9h-9.5c-2.2,0-4,1.8-4,3.9v29.8c0,3.7,3,6.7,6.7,6.7h27
		c3.7,0,6.7-3,6.7-6.7V36.5C50.5,32.8,47.5,29.8,43.8,29.8z M42.6,50.5c0,1.1-0.9,1.9-1.9,1.9H20.1c-1.1,0-1.9-0.9-1.9-1.9v-12
		c0-1.1,0.9-1.9,1.9-1.9h20.6c1.1,0,1.9,0.9,1.9,1.9V50.5z"/>
	<path display="none" d="M61.6,22.8V23c0,2.2-1.7,4-3.9,4H37.8v-2.4h-8.1v-3.3h8.1v-2.5h19.9C59.9,18.8,61.6,20.6,61.6,22.8z"/>
	<path display="none" d="M72.6,55.7c0,0-0.1,3.9-4.1,1.8l-10.4-6v0h-5.6V37.1h5.6v0l10.6-6.4c0,0,3.8-2.1,3.9,2L72.6,55.7z"/>
</g>
</svg>
