<?xml version="1.0" encoding="utf-8"?>
<!-- Generator: Adobe Illustrator 18.0.0, SVG Export Plug-In . SVG Version: 6.00 Build 0)  -->
<!DOCTYPE svg PUBLIC "-//W3C//DTD SVG 1.1//EN" "http://www.w3.org/Graphics/SVG/1.1/DTD/svg11.dtd">
<svg version="1.1" id="Calque_2" xmlns="http://www.w3.org/2000/svg" xmlns:xlink="http://www.w3.org/1999/xlink" x="0px" y="0px"
	 viewBox="0 0 80 80" enable-background="new 0 0 80 80" xml:space="preserve">
<g>
	<g>
		<path fill="#333333" d="M65.9,15.4H15.1c-3.1,0-5.6,2.5-5.6,5.6v36.7c0,3.1,2.5,5.6,5.6,5.6h50.8c3.1,0,5.6-2.5,5.6-5.6V21
			C71.5,17.9,69,15.4,65.9,15.4z M68.9,57.7c0,1.7-1.3,3-3,3H15.1c-1.7,0-3-1.3-3-3V28.2h56.7C68.9,28.2,68.9,57.7,68.9,57.7z
			 M68.9,25.6H12.2V21c0-1.7,1.3-3,3-3h50.8c1.7,0,3,1.3,3,3C68.9,21,68.9,25.6,68.9,25.6z"/>
		<path fill="#333333" d="M40.5,23.6h23.6c0.3,0,0.5-0.2,0.5-0.5v-1.7c0-0.3-0.2-0.5-0.5-0.5H40.5c-0.3,0-0.5,0.2-0.5,0.5v1.7
			C40,23.4,40.2,23.6,40.5,23.6z"/>
		<circle fill="#333333" cx="16.6" cy="22.3" r="1.3"/>
		<circle fill="#333333" cx="20.8" cy="22.3" r="1.3"/>
		<circle fill="#333333" cx="25.4" cy="22.3" r="1.3"/>
		<path fill="#333333" d="M32.1,49.5l-5.4-5.4l4.8-4.8c0.5-0.5,0.5-1.3,0-1.9l0,0c-0.5-0.5-1.3-0.5-1.9,0l-5.6,5.6
			c-0.6,0.6-0.6,1.5,0,2.1l6.1,6.1c0.5,0.5,1.3,0.5,1.9,0l0,0C32.7,50.8,32.7,50,32.1,49.5z"/>
		<path fill="#333333" d="M50.4,51.3l6.1-6.1c0.6-0.6,0.6-1.5,0-2.1l-5.6-5.6c-0.5-0.5-1.3-0.5-1.9,0l0,0c-0.5,0.5-0.5,1.3,0,1.9
			l4.8,4.8l-5.4,5.4c-0.5,0.5-0.5,1.3,0,1.9l0,0C49.1,51.8,49.9,51.8,50.4,51.3z"/>
		<path fill="#333333" d="M45.5,36.4L45.5,36.4c-0.6-0.3-1.4-0.2-1.8,0.4l-8.4,13.8c-0.3,0.6-0.2,1.4,0.4,1.8l0,0
			c0.6,0.3,1.4,0.2,1.8-0.4l8.3-13.7C46.4,37.6,46.2,36.7,45.5,36.4z"/>
	</g>
</g>
</svg>
