<?xml version="1.0" encoding="utf-8"?>
<!-- Generator: Adobe Illustrator 18.0.0, SVG Export Plug-In . SVG Version: 6.00 Build 0)  -->
<!DOCTYPE svg PUBLIC "-//W3C//DTD SVG 1.1//EN" "http://www.w3.org/Graphics/SVG/1.1/DTD/svg11.dtd">
<svg version="1.1" id="Calque_3" xmlns="http://www.w3.org/2000/svg" xmlns:xlink="http://www.w3.org/1999/xlink" x="0px" y="0px"
	 viewBox="0 0 80 80" enable-background="new 0 0 80 80" xml:space="preserve">
<g>
	<g>
		<path fill="none" stroke="#333333" stroke-width="2" stroke-miterlimit="10" d="M44.9,65.8c0-10.2,10.5-15,10.5-15l-12-27h-3"/>
		<path fill="none" stroke="#333333" stroke-width="2" stroke-miterlimit="10" d="M35.9,65.8c0-10.2-10.5-15-10.5-15l12-27h3"/>
		<line fill="none" stroke="#333333" stroke-width="2" stroke-miterlimit="10" x1="40.4" y1="23.9" x2="40.4" y2="40.3"/>
		<rect x="24" y="65.8" fill="none" stroke="#333333" stroke-width="2" stroke-miterlimit="10" width="32.9" height="10.5"/>
		<circle fill="none" stroke="#333333" stroke-width="2" stroke-miterlimit="10" cx="40.4" cy="43.3" r="3"/>
		<g>
			<g>
				<rect x="59.9" y="32.9" fill="none" stroke="#333333" stroke-width="2" stroke-miterlimit="10" width="6" height="6"/>
				<rect x="37.4" y="7.4" fill="none" stroke="#333333" stroke-width="2" stroke-miterlimit="10" width="6" height="6"/>
				<rect x="15" y="32.9" fill="none" stroke="#333333" stroke-width="2" stroke-miterlimit="10" width="6" height="6"/>
				<path fill="none" stroke="#333333" stroke-width="2" stroke-miterlimit="10" d="M37.4,10.5C26.5,12,18,21.5,18,32.9"/>
				<path fill="none" stroke="#333333" stroke-width="2" stroke-miterlimit="10" d="M62.9,32.9c0-11.4-8.5-20.8-19.5-22.3"/>
			</g>
			<g>
				<line fill="none" stroke="#333333" stroke-width="2" stroke-miterlimit="10" x1="43.4" y1="10.4" x2="68.9" y2="10.4"/>
				<rect x="68.9" y="7.4" fill="none" stroke="#333333" stroke-width="2" stroke-miterlimit="10" width="6" height="6"/>
			</g>
			<g>
				<line fill="none" stroke="#333333" stroke-width="2" stroke-miterlimit="10" x1="37.4" y1="10.4" x2="12" y2="10.4"/>
				<rect x="6" y="7.4" fill="none" stroke="#333333" stroke-width="2" stroke-miterlimit="10" width="6" height="6"/>
			</g>
		</g>
	</g>
</g>
</svg>
